<?xml version="1.0" encoding="utf-8"?>
<!-- Generator: Adobe Illustrator 15.0.0, SVG Export Plug-In . SVG Version: 6.00 Build 0)  -->
<!DOCTYPE svg PUBLIC "-//W3C//DTD SVG 1.1//EN" "http://www.w3.org/Graphics/SVG/1.1/DTD/svg11.dtd">
<svg version="1.1" id="Layer_1" xmlns="http://www.w3.org/2000/svg" xmlns:xlink="http://www.w3.org/1999/xlink" x="0px" y="0px"
	 width="250px" height="250px" viewBox="106.865 127.885 250 250" enable-background="new 106.865 127.885 250 250"
	 xml:space="preserve">
<polyline fill="none" stroke="#A3BCC7" stroke-width="3" stroke-miterlimit="10" points="286.769,239.091 254.993,203.501 
	185.449,203.501 171.181,218.234 150.678,239.091 "/>
<g>
	<polygon fill="#A3BCC7" points="283.865,240.885 154.865,240.885 150.775,237.885 286.865,237.885 	"/>
</g>
<g>
	<path fill="#A3BCC7" d="M180.122,240.885l28.171,49.428l-51.63-49.428H180.122 M181.865,237.885h-28.486h-4.188l62.674,60h4.197
		L181.865,237.885L181.865,237.885z"/>
</g>
<g>
	<path fill="#A3BCC7" d="M280.623,240.885l-51.581,51.58l26.65-51.58H280.623 M287.865,237.885h-4h-30l-31,60h5L287.865,237.885
		L287.865,237.885z"/>
</g>
<line fill="none" stroke="#A3BCC7" stroke-width="3" stroke-miterlimit="10" x1="199.239" y1="203.719" x2="183.352" y2="239.091"/>
<line fill="none" stroke="#A3BCC7" stroke-width="3" stroke-miterlimit="10" x1="243.004" y1="203.719" x2="254.865" y2="238.885"/>
<line fill="none" stroke="#A3BCC7" stroke-width="3" stroke-miterlimit="10" x1="270.865" y1="238.885" x2="266.386" y2="258.275"/>
<polyline fill="none" stroke="#A3BCC7" stroke-width="3" stroke-miterlimit="10" points="166.298,239.091 194.511,258.949 
	218.723,239.091 243.865,258.949 266.865,239.885 "/>
<line fill="none" stroke="#A3BCC7" stroke-width="3" stroke-miterlimit="10" x1="170.865" y1="256.885" x2="166.298" y2="239.091"/>
<polygon fill="none" stroke="#A3BCC7" stroke-width="3" stroke-miterlimit="10" points="191.296,221.405 218.723,239.091 
	250.798,221.405 221.047,203.719 "/>
<path fill="none" stroke="#A3BCC7" stroke-width="3" stroke-miterlimit="10" d="M185.449,203.719"/>
<path fill="none" stroke="#A3BCC7" stroke-width="3" stroke-miterlimit="10" d="M150.678,239.091"/>
<polyline fill="none" stroke="#A3BCC7" stroke-width="3" stroke-miterlimit="10" points="166.298,239.091 168.065,221.403 
	178.797,221.405 191.296,221.405 166.298,239.091 "/>
<polyline fill="none" stroke="#A3BCC7" stroke-width="3" stroke-miterlimit="10" points="267.865,238.885 268.865,221.405 
	263.297,221.405 250.798,221.405 268.865,238.885 "/>
<g>
	<path fill="#A3BCC7" d="M297.865,366.885h-23.292l9.644-13.9l13.648,2.528V366.885z M280.306,363.885h14.56v-5.876l-9.289-1.722
		L280.306,363.885z"/>
</g>
<g>
	
		<rect x="301.734" y="346.428" transform="matrix(0.7674 0.6411 -0.6411 0.7674 299.6346 -111.3065)" fill="#A3BCC7" width="3.001" height="21.83"/>
</g>
<g>
	<polygon fill="#A3BCC7" points="333.865,366.885 315.811,366.885 315.811,363.885 328.756,363.885 325.216,354.885 
		319.383,354.885 314.914,358.405 313.811,355.616 318.811,351.885 326.978,351.885 	"/>
</g>
<g>
	<polygon fill="#A3BCC7" points="331.779,366.874 315.953,357.197 317.865,354.885 329.865,362.885 	"/>
</g>
<g>
	<polygon fill="#A3BCC7" points="285.961,355.875 283.571,354.062 292.02,342.926 302.33,342.926 303.038,348.789 300.06,349.148 
		299.865,345.885 293.705,345.885 	"/>
</g>
<g>
	<polygon fill="#A3BCC7" points="319.613,366.885 295.767,366.885 283.865,355.73 285.916,353.541 296.952,363.885 315.107,363.885 
		309.364,348.885 302.489,348.885 295.792,360.368 291.444,344.489 294.336,343.696 296.927,353.153 300.865,345.885 
		311.362,345.885 	"/>
</g>
<g>
	<polygon fill="#A3BCC7" points="325.357,355.561 316.599,333.885 311.307,333.885 302.171,345.363 299.829,343.488 
		309.865,330.885 318.573,330.885 328.113,354.376 	"/>
</g>
<g>
	
		<rect x="312.234" y="333.192" transform="matrix(0.9061 0.4231 -0.4231 0.9061 173.94 -100.6713)" fill="#A3BCC7" width="3.001" height="16.553"/>
</g>
<g>
	<path fill="none" stroke="#A3BCC7" stroke-width="3" stroke-miterlimit="10" d="M310.235,333.969"/>
</g>
<g>
	<path fill="none" stroke="#A3BCC7" stroke-width="3" stroke-miterlimit="10" d="M310.235,333.969"/>
</g>
<path fill="none" stroke="#A3BCC7" stroke-width="3" stroke-linecap="round" stroke-linejoin="round" stroke-miterlimit="10" d="
	M261.541,211.007c4.541-4.518,7.245-7.21,7.245-7.21c1.769-1.769,18.646-18.391,19.39-19.181c0.207,0.405,2.75,3.116,2.936,3.521
	c0,0,3.062-3.062,8.933-5.21c0,0,18.295,14.995,45.164,47.993c0,0,2.416,1.591,1.414-1.414c0,0-21.914-31.526-41.787-54.998
	l0.004,0.006l2.653-2.757c0,0-0.104-2.011-5.762-7.667"/>
<path fill="none" stroke="#A3BCC7" stroke-width="3" stroke-linecap="round" stroke-linejoin="round" stroke-miterlimit="10" d="
	M186.179,272.851c-1.5,1.522-2.965,3.013-4.389,4.462c-11.304,11.5-46.316,44.9-46.316,44.9c-0.947,0.946,0.385,3.333,0.681,4.208
	c0,0,0.323,1.008,1.13,1.768c0.76,0.808,1.769,1.131,1.769,1.131c0.875,0.295,3.261,1.627,4.208,0.682
	c0,0,33.399-35.014,44.899-46.316c1.5-1.475,3.046-2.995,4.625-4.55"/>
<path fill="none" stroke="#A3BCC7" stroke-width="3" stroke-linecap="round" stroke-linejoin="round" stroke-miterlimit="10" d="
	M301.387,163.743c-5.658-5.656-7.668-5.763-7.668-5.763l-2.758,2.654l0.006,0.005c-7.513-6.36-22.556-21.772-22.885-22.023
	l-5.804,5.881c13.797,13.037,20.271,20.935,20.271,20.935c-2.148,5.869-5.211,8.931-5.211,8.931c0.401,0.186,2.438,2.38,2.846,2.587
	c-0.791,0.742-16.738,17.969-18.506,19.736c0,0-2.545,2.556-6.837,6.871"/>
<line fill="none" stroke="#A3BCC7" stroke-width="3" stroke-linecap="round" stroke-linejoin="round" stroke-miterlimit="10" x1="280.184" y1="176.949" x2="288.176" y2="184.616"/>
<g>
	<path fill="#A3BCC7" d="M131.056,240.885h-13.923c-0.829,0-1.5-0.672-1.5-1.5s0.671-1.5,1.5-1.5h13.923c0.828,0,1.5,0.672,1.5,1.5
		S131.884,240.885,131.056,240.885z"/>
</g>
<line fill="none" stroke="#A3BCC7" stroke-width="3" stroke-linecap="round" stroke-linejoin="bevel" stroke-miterlimit="10" x1="145.054" y1="206.559" x2="135.341" y2="196.583"/>
<line fill="none" stroke="#A3BCC7" stroke-width="3" stroke-linecap="round" stroke-linejoin="bevel" stroke-miterlimit="10" x1="135.341" y1="278.144" x2="145.055" y2="268.167"/>
<g>
	<path fill="#A3BCC7" d="M318.965,240.885h-13.924c-0.828,0-1.5-0.672-1.5-1.5s0.672-1.5,1.5-1.5h13.924c0.828,0,1.5,0.672,1.5,1.5
		S319.793,240.885,318.965,240.885z"/>
</g>
<line fill="none" stroke="#A3BCC7" stroke-width="3" stroke-linecap="round" stroke-linejoin="bevel" stroke-miterlimit="10" x1="300.757" y1="278.144" x2="291.043" y2="268.167"/>
<circle fill="#A3BCC7" cx="269.042" cy="365.335" r="1.527"/>
<circle fill="#A3BCC7" cx="265.988" cy="365.839" r="1.527"/>
<circle fill="#A3BCC7" cx="337.393" cy="365.335" r="1.527"/>
<circle fill="#A3BCC7" cx="273.064" cy="363.808" r="1.527"/>
<circle fill="#A3BCC7" cx="261.889" cy="366.862" r="1.023"/>
<circle fill="#A3BCC7" cx="341.144" cy="365.838" r="1.023"/>
<circle fill="#A3BCC7" cx="270.569" cy="362.281" r="1.023"/>
<circle fill="#A3BCC7" cx="271.592" cy="365.334" r="1.527"/>
<rect x="211.865" y="294.885" fill="#A3BCC7" width="16" height="3"/>
</svg>
