<?xml version="1.0" encoding="utf-8"?>
<!-- Generator: Adobe Illustrator 15.0.0, SVG Export Plug-In . SVG Version: 6.00 Build 0)  -->
<!DOCTYPE svg PUBLIC "-//W3C//DTD SVG 1.1//EN" "http://www.w3.org/Graphics/SVG/1.1/DTD/svg11.dtd">
<svg version="1.1" id="Layer_1" xmlns="http://www.w3.org/2000/svg" xmlns:xlink="http://www.w3.org/1999/xlink" x="0px" y="0px"
	 width="250px" height="275px" viewBox="97 136.125 250 275" enable-background="new 97 136.125 250 275" xml:space="preserve">
<g>
	<g>
		<path fill="#A3BCC7" d="M190.961,151.135c3.021,0,9.479,5.626,16.518,17.979C213.748,180.115,218,192.18,218,199.135v107h-54.041
			v-107c0-6.955,4.213-19.02,10.481-30.021C181.481,156.761,187.939,151.135,190.961,151.135 M190.961,148.135
			c-11,0-29.961,34.984-29.961,51v109.99h59.961v-109.99C220.959,183.119,201.959,148.135,190.961,148.135L190.961,148.135z"/>
	</g>
	<g>
		<circle fill="none" stroke="#A3BCC7" stroke-width="3" stroke-miterlimit="10" cx="190.961" cy="207.385" r="15.5"/>
		<circle fill="none" stroke="#A3BCC7" stroke-width="3" stroke-miterlimit="10" cx="190.961" cy="207.385" r="9.375"/>
	</g>
	<path fill="none" stroke="#A3BCC7" stroke-width="3" stroke-linecap="round" stroke-linejoin="round" stroke-miterlimit="10" d="
		M161.016,260.885c0,0-10-5-16,12l-26,76l42-41"/>
	<path fill="none" stroke="#A3BCC7" stroke-width="3" stroke-linecap="round" stroke-linejoin="round" stroke-miterlimit="10" d="
		M220.016,260.885c0,0,10-5,16,12l26,76l-42-41"/>
	<g>
		<path fill="#A3BCC7" d="M182.574,309.125l-2.271,5h-7.03l-2.448-5H182.574 M187.233,306.125h-21.218l5.385,11h10.833
			L187.233,306.125L187.233,306.125z"/>
	</g>
	<g>
		<path fill="#A3BCC7" d="M209.576,309.125l-2.272,5h-7.031l-2.448-5H209.576 M214.234,306.125h-21.219l5.385,11h10.834
			L214.234,306.125L214.234,306.125z"/>
	</g>
	<path fill="none" stroke="#A3BCC7" stroke-width="3" stroke-linecap="round" stroke-linejoin="round" stroke-miterlimit="10" d="
		M184.733,329.635c0,4.143-7.5,18.5-7.5,18.5s-7.5-14.357-7.5-18.5s3.358-7.5,7.5-7.5S184.733,325.492,184.733,329.635z"/>
	<path fill="none" stroke="#A3BCC7" stroke-width="3" stroke-linecap="round" stroke-linejoin="round" stroke-miterlimit="10" d="
		M202.016,349.135"/>
	<path fill="none" stroke="#A3BCC7" stroke-width="3" stroke-linecap="round" stroke-linejoin="round" stroke-miterlimit="10" d="
		M187.619,332.52c0,11.615-10.386,29.615-10.386,29.615s-10.385-19-10.385-29.615c0-5.734,4.647-10.385,10.385-10.385
		C182.97,322.135,187.619,326.783,187.619,332.52z"/>
	<path fill="none" stroke="#A3BCC7" stroke-width="3" stroke-linecap="round" stroke-linejoin="round" stroke-miterlimit="10" d="
		M211.733,329.635c0,4.143-7.5,18.5-7.5,18.5s-7.5-14.357-7.5-18.5s3.357-7.5,7.5-7.5
		C208.377,322.135,211.733,325.492,211.733,329.635z"/>
	<path fill="none" stroke="#A3BCC7" stroke-width="3" stroke-linecap="round" stroke-linejoin="round" stroke-miterlimit="10" d="
		M214.619,332.52c0,11.615-10.386,29.615-10.386,29.615s-10.384-19-10.384-29.615c0-5.734,4.648-10.385,10.384-10.385
		S214.619,326.783,214.619,332.52z"/>
	
		<circle fill="none" stroke="#A3BCC7" stroke-width="3" stroke-linecap="round" stroke-linejoin="round" stroke-miterlimit="10" cx="307.516" cy="377.885" r="14.5"/>
	
		<line fill="none" stroke="#A3BCC7" stroke-width="3" stroke-linecap="round" stroke-linejoin="round" stroke-miterlimit="10" x1="286.016" y1="393.885" x2="329.016" y2="361.885"/>
	
		<circle fill="none" stroke="#A3BCC7" stroke-width="3" stroke-linecap="round" stroke-linejoin="round" stroke-miterlimit="10" cx="315.016" cy="352.135" r="4.812"/>
	<rect x="162" y="279.125" fill="#A3BCC7" width="57" height="3"/>
	<rect x="163" y="288.125" fill="#A3BCC7" width="56" height="3"/>
	<rect x="162" y="297.125" fill="#A3BCC7" width="56" height="3"/>
</g>
</svg>
