<?xml version="1.0" encoding="utf-8"?>
<!-- Generator: Adobe Illustrator 15.0.0, SVG Export Plug-In . SVG Version: 6.00 Build 0)  -->
<!DOCTYPE svg PUBLIC "-//W3C//DTD SVG 1.1//EN" "http://www.w3.org/Graphics/SVG/1.1/DTD/svg11.dtd">
<svg version="1.1" id="Layer_1" xmlns="http://www.w3.org/2000/svg" xmlns:xlink="http://www.w3.org/1999/xlink" x="0px" y="0px"
	 width="250px" height="220px" viewBox="106.5 109.5 250 220" enable-background="new 106.5 109.5 250 220" xml:space="preserve">
<g id="design">
	<g>
		<g>
			<path fill="none" stroke="#A3BCC7" stroke-width="3" stroke-miterlimit="10" d="M277.502,267.381l29.998-30.414l-21.213-21.188
				L256,246.492l-16.766-16.266c18.355-16.422,18.516-35.762,12.012-48.713c-9.488-18.809-32.52-26.41-51.354-16.937
				c-10.371,5.228-17.904,15.942-19.682,28.015c-1.775,12.154,2.459,24.27,11.629,33.412c-15.193,13.719-20.676,29.725-16.32,47.703
				c3.943,16.262,16.672,29.328,32.379,33.379c9.775,2.518,29.225,4.632,49.062-17.005l21.854,20.92H300v-31.323l-10.795,0.104
				L277.502,267.381z M217.117,188.617c5.006,0,9.066,4.062,9.066,9.068c0,6.926-9.066,13.191-9.066,13.191s-9.07-5.607-9.07-13.191
				C208.047,192.68,212.107,188.617,217.117,188.617z M234.729,268.812c-4.854,5.301-12.158,11.23-19.428,9.353
				c-5.531-1.429-9.557-6.847-10.686-11.463c-1.215-5.029-1.602-11.086,8.818-19.729l21.863,21.223
				C235.104,268.404,234.924,268.609,234.729,268.812z"/>
		</g>
		<rect x="114.5" y="228.5" fill="#A3BCC7" width="3" height="84"/>
		<rect x="115.5" y="309.5" fill="#A3BCC7" width="19" height="3"/>
		<rect x="114.5" y="160.5" fill="#A3BCC7" width="3" height="69"/>
		<rect x="115.5" y="160.5" fill="#A3BCC7" width="19" height="3"/>
		<rect x="115.5" y="184.5" fill="#A3BCC7" width="19" height="3"/>
		<rect x="117.5" y="172.5" fill="#A3BCC7" width="8" height="3"/>
		<rect x="115.5" y="209.5" fill="#A3BCC7" width="19" height="3"/>
		<rect x="117.5" y="197.5" fill="#A3BCC7" width="8" height="3"/>
		<rect x="115.5" y="234.5" fill="#A3BCC7" width="19" height="3"/>
		<rect x="117.5" y="222.5" fill="#A3BCC7" width="8" height="3"/>
		<rect x="115.5" y="258.5" fill="#A3BCC7" width="19" height="3"/>
		<rect x="117.5" y="246.5" fill="#A3BCC7" width="8" height="3"/>
		<rect x="115.5" y="282.5" fill="#A3BCC7" width="19" height="3"/>
		<rect x="117.5" y="270.5" fill="#A3BCC7" width="8" height="3"/>
		<rect x="117.5" y="295.5" fill="#A3BCC7" width="8" height="3"/>
		<g>
			<path fill="#A3BCC7" d="M293.5,121.5v22h-22v-22H293.5 M296.5,118.5h-28v28h28V118.5L296.5,118.5z"/>
		</g>
		<g>
			<path fill="#A3BCC7" d="M318.5,121.5v22h-22v-22H318.5 M321.5,118.5h-28v28h28V118.5L321.5,118.5z"/>
		</g>
		<g>
			<path fill="#A3BCC7" d="M343.5,121.5v22h-22v-22H343.5 M346.5,118.5h-28v28h28V118.5L346.5,118.5z"/>
		</g>
		<line fill="none" stroke="#A3BCC7" stroke-width="3" stroke-miterlimit="10" x1="320.5" y1="144.5" x2="343.5" y2="121.5"/>
		<g>
			<path fill="#A3BCC7" d="M311.5,128.5v8h-8v-8H311.5 M314.5,125.5h-14v14h14V125.5L314.5,125.5z"/>
		</g>
	</g>
</g>
</svg>
