<?xml version="1.0" encoding="utf-8"?>
<!-- Generator: Adobe Illustrator 15.0.0, SVG Export Plug-In . SVG Version: 6.00 Build 0)  -->
<!DOCTYPE svg PUBLIC "-//W3C//DTD SVG 1.1//EN" "http://www.w3.org/Graphics/SVG/1.1/DTD/svg11.dtd">
<svg version="1.1" id="Layer_1" xmlns="http://www.w3.org/2000/svg" xmlns:xlink="http://www.w3.org/1999/xlink" x="0px" y="0px"
	 width="250px" height="250px" viewBox="103.481 123.503 250 250" enable-background="new 103.481 123.503 250 250"
	 xml:space="preserve">
<g id="develop">
	<g>
		<g>
			<path fill="none" stroke="#A3BCC7" stroke-width="3" stroke-miterlimit="10" d="M256.438,260.558l-14.039,0.092
				c-1.848-4.27-4.174-8.287-6.918-11.976l7.141-12.015c-2.301-2.655-4.789-5.144-7.445-7.444l-12.065,7.087
				c-3.688-2.744-7.704-5.069-11.977-6.918l0.146-15.155c-3.285-1.139-6.674-2.051-10.152-2.715l-6.9,13.354
				c-2.268-0.26-4.567-0.406-6.904-0.406c-2.336,0-4.637,0.146-6.902,0.406l-6.902-12.186c-3.479,0.665-6.868,1.577-10.154,2.717
				l0.146,13.984c-4.271,1.849-8.287,4.174-11.975,6.918l-12.068-7.087c-2.656,2.302-5.146,4.79-7.447,7.446l7.143,12.013
				c-2.745,3.688-5.068,7.704-6.919,11.976l-14.037-0.092c-1.139,3.285-2.051,6.674-2.715,10.15l12.238,6.848
				c-0.261,2.268-0.408,4.568-0.408,6.906c0,2.336,0.147,4.639,0.408,6.904l-12.239,6.955c0.664,3.479,1.577,6.867,2.716,10.152
				l14.036-0.201c1.85,4.271,4.174,8.289,6.919,11.977l-7.142,12.119c2.303,2.656,4.791,5.146,7.447,7.447l12.064-7.193
				c3.688,2.744,7.705,5.068,11.977,6.918l-0.146,14.09c3.285,1.139,6.674,2.051,10.152,2.717l6.9-12.293
				c2.268,0.26,4.568,0.408,6.905,0.408c2.338,0,4.639-0.148,6.905-0.408l6.899,12.293c3.479-0.666,6.867-1.578,10.152-2.717
				l-0.146-14.09c4.271-1.85,8.287-4.174,11.976-6.918l12.064,7.193c2.657-2.301,5.146-4.789,7.446-7.445l-7.142-12.121
				c2.744-3.688,5.07-7.705,6.918-11.975l14.039,0.199c1.14-3.285,2.051-6.674,2.717-10.152l-12.239-6.955
				c0.261-2.268,0.406-4.566,0.406-6.902c0-2.338-0.146-4.639-0.406-6.906l12.239-6.848
				C258.487,267.232,257.576,263.843,256.438,260.558z"/>
			<circle fill="none" stroke="#A3BCC7" stroke-width="3" stroke-miterlimit="10" cx="187.323" cy="283.931" r="51.5"/>
			<circle fill="none" stroke="#A3BCC7" stroke-width="3" stroke-miterlimit="10" cx="187.322" cy="283.931" r="18.5"/>
		</g>
		<g>
			<path fill="none" stroke="#A3BCC7" stroke-width="3" stroke-miterlimit="10" d="M334.273,193.744
				c0.087-1.232,0.146-2.474,0.146-3.729s-0.06-2.495-0.146-3.729l-6.068-0.938c-0.176-1.766-0.457-3.499-0.824-5.201l5.498-2.775
				c-0.603-2.434-1.378-4.797-2.306-7.084l-6.076,0.986c-0.711-1.613-1.512-3.177-2.396-4.688l4.369-4.336
				c-1.319-2.114-2.783-4.129-4.383-6.027l-5.474,2.814c-1.169-1.31-2.411-2.551-3.72-3.719l2.813-5.474
				c-1.897-1.601-3.911-3.063-6.026-4.384l-4.336,4.369c-1.512-0.883-3.074-1.684-4.688-2.395l0.985-6.076
				c-2.286-0.929-4.65-1.703-7.084-2.305l-2.775,5.497c-1.702-0.368-3.436-0.649-5.2-0.825l-0.938-6.068
				c-1.229-0.084-2.471-0.145-3.725-0.145c-1.255,0-2.494,0.061-3.728,0.146l-0.938,6.067c-1.766,0.177-3.5,0.457-5.201,0.825
				l-2.774-5.497c-2.435,0.603-4.797,1.376-7.084,2.304l0.985,6.077c-1.612,0.711-3.178,1.511-4.688,2.394l-4.336-4.368
				c-2.113,1.319-4.128,2.784-6.026,4.384l2.813,5.473c-1.31,1.17-2.55,2.411-3.72,3.719l-5.473-2.813
				c-1.6,1.897-3.064,3.913-4.385,6.026l4.369,4.337c-0.883,1.511-1.684,3.075-2.395,4.688l-6.076-0.985
				c-0.929,2.287-1.701,4.649-2.304,7.084l5.496,2.774c-0.366,1.702-0.647,3.435-0.823,5.201l-6.068,0.938
				c-0.086,1.231-0.146,2.473-0.146,3.728s0.061,2.495,0.146,3.728l6.068,0.938c0.176,1.767,0.457,3.499,0.823,5.201l-5.496,2.774
				c0.603,2.435,1.375,4.799,2.304,7.084l6.076-0.985c0.711,1.612,1.512,3.177,2.395,4.688l-4.369,4.336
				c1.32,2.113,2.785,4.127,4.385,6.026l5.473-2.813c1.17,1.309,2.41,2.549,3.72,3.72l-2.813,5.472
				c1.898,1.6,3.913,3.064,6.026,4.385l4.336-4.371c1.513,0.883,3.076,1.684,4.688,2.395l-0.985,6.076
				c2.287,0.929,4.649,1.703,7.084,2.305l2.774-5.497c1.701,0.368,3.437,0.649,5.201,0.825l0.938,6.068
				c1.231,0.086,2.473,0.146,3.728,0.146c1.254,0,2.495-0.06,3.729-0.146l0.938-6.068c1.766-0.176,3.498-0.457,5.2-0.825
				l2.774,5.497c2.435-0.602,4.799-1.376,7.084-2.305l-0.984-6.076c1.613-0.71,3.178-1.512,4.688-2.395l4.338,4.369
				c2.113-1.32,4.128-2.785,6.025-4.384l-2.813-5.472c1.309-1.17,2.551-2.411,3.72-3.721l5.473,2.814
				c1.601-1.898,3.063-3.913,4.385-6.027l-4.369-4.336c0.883-1.511,1.684-3.074,2.395-4.688l6.076,0.986
				c0.928-2.287,1.703-4.65,2.305-7.084l-5.498-2.775c0.369-1.702,0.649-3.436,0.825-5.201L334.273,193.744z"/>
			<circle fill="none" stroke="#A3BCC7" stroke-width="3" stroke-miterlimit="10" cx="281.92" cy="190.015" r="38.5"/>
			<circle fill="none" stroke="#A3BCC7" stroke-width="3" stroke-miterlimit="10" cx="281.723" cy="188.878" r="6.406"/>
			<polygon fill="none" stroke="#A3BCC7" stroke-width="3" stroke-miterlimit="10" points="318.254,180.69 316.672,175.348 
				287.062,181.384 284.538,152.348 278.969,152.348 276.442,181.384 246.835,175.348 245.254,180.69 273.178,191.667 
				257.258,218.062 261.76,221.343 281.754,198.373 301.746,221.343 306.249,218.062 290.329,191.667 			"/>
		</g>
		<g>
			<path fill="none" stroke="#A3BCC7" stroke-width="3" stroke-miterlimit="10" d="M336.674,271.468
				c-1.383-0.977-5.353,0.969-6.771,0.045c-1.879-1.229-3.222-3.562-3.335-5.773c-0.087-1.684,3.593-4.115,3.441-5.793
				c-0.149-1.688-1.901-3.436-3.59-3.59c-1.68-0.154-4.133,3.508-5.816,3.416c-2.213-0.119-4.551-1.453-5.774-3.336
				c-0.995-1.531,1.122-5.812,0.07-7.307c-0.966-1.371-3.359-2.057-4.896-1.309c-1.63,0.791-1.729,5.586-3.326,6.439
				c-0.973,0.518-5.679,0.498-6.658,0c-1.506-0.768-1.797-5.168-3.328-5.876c-1.551-0.718-3.932-0.062-4.896,1.31
				c-0.971,1.379,0.988,5.33,0.07,6.742c-1.221,1.883-3.561,3.215-5.773,3.336c-1.684,0.092-4.137-3.57-5.816-3.416
				c-1.688,0.154-3.439,1.902-3.592,3.59c-0.148,1.678,3.531,4.109,3.443,5.793c-0.115,2.213-1.455,4.547-3.336,5.773
				c-1.418,0.924-5.387-1.021-6.768-0.045c-1.369,0.967-2.031,3.348-1.311,4.895c0.715,1.533,5.131,1.797,5.901,3.301
				c0.501,0.98,0.498,5.68,0,6.66c-0.769,1.512-5.188,1.812-5.901,3.354c-0.716,1.551-0.062,3.934,1.311,4.895
				c1.386,0.971,5.347-1.016,6.768-0.096c1.885,1.219,3.217,3.561,3.336,5.773c0.092,1.693-3.449,4.146-3.443,5.844
				c0.009,1.693,1.902,3.441,3.593,3.59c1.687,0.148,4.125-3.555,5.815-3.469c2.215,0.113,4.553,1.453,5.774,3.338
				c0.925,1.424-1.049,5.402-0.071,6.793c0.965,1.371,3.348,2.027,4.896,1.309c1.54-0.717,1.814-5.152,3.326-5.926
				c0.979-0.5,5.681-0.5,6.66,0c1.513,0.773,1.785,5.209,3.326,5.926c1.549,0.721,3.93,0.062,4.896-1.309
				c0.978-1.391-0.994-5.369-0.07-6.793c1.224-1.883,3.562-3.225,5.774-3.338c1.689-0.088,4.131,3.617,5.816,3.469
				c1.688-0.148,3.438-1.902,3.59-3.59c0.154-1.688-3.533-4.148-3.441-5.844c0.117-2.213,1.451-4.557,3.335-5.773
				c1.422-0.92,5.384,1.066,6.771,0.096c1.373-0.961,2.024-3.344,1.31-4.895c-0.711-1.541-5.134-1.842-5.901-3.354
				c-0.498-0.98-0.502-5.68,0-6.658c0.771-1.506,5.188-1.77,5.901-3.303C338.704,274.814,338.041,272.435,336.674,271.468z"/>
			<circle fill="none" stroke="#A3BCC7" stroke-width="3" stroke-miterlimit="10" cx="303.348" cy="282.733" r="8.233"/>
			<circle fill="none" stroke="#A3BCC7" stroke-width="3" stroke-miterlimit="10" cx="303.348" cy="282.732" r="19"/>
		</g>
	</g>
</g>
</svg>
