<?xml version="1.0" encoding="utf-8"?>
<!-- Generator: Adobe Illustrator 15.0.0, SVG Export Plug-In . SVG Version: 6.00 Build 0)  -->
<!DOCTYPE svg PUBLIC "-//W3C//DTD SVG 1.1//EN" "http://www.w3.org/Graphics/SVG/1.1/DTD/svg11.dtd">
<svg version="1.1" id="Layer_1" xmlns="http://www.w3.org/2000/svg" xmlns:xlink="http://www.w3.org/1999/xlink" x="0px" y="0px"
	 width="200px" height="225px" viewBox="83.49 110.404 200 200" enable-background="new 83.49 110.404 200 200"
	 xml:space="preserve">
<polyline fill="none" stroke="#A3BCC7" stroke-width="3" stroke-miterlimit="10" points="124.113,298.904 230.113,298.904 
	230.113,279.904 107.113,279.905 "/>
<path fill="none" stroke="#A3BCC7" stroke-width="3" stroke-miterlimit="10" d="M107.113,115.086h-5.498
	c-5.248,0-8.502,4.254-8.502,9.502v164.766c0,0.02-0.123,0.038-0.123,0.059c0,5.248,4.355,9.254,9.604,9.254h3.521"/>
<g>
	<path fill="#A3BCC7" d="M234.49,157.404v-41c0-0.266-0.247,0-0.512,0H100.49v-3h134.488c1.919,0,2.512,1.562,2.512,3.48v40.019
		L234.49,157.404z"/>
</g>
<path fill="none" stroke="#A3BCC7" stroke-width="3" stroke-miterlimit="10" d="M237.044,181.905l0.068,96.004
	c0,1.093-0.887,1.979-1.98,1.979H108.423c-1.094,0-2.311-0.887-2.311-1.979V115.404"/>
<path fill="none" stroke="#A3BCC7" stroke-width="3" stroke-miterlimit="10" d="M124.113,292.906h106v-6.994H105.115
	c-3.279,0-6,0.284-6,3.565c0,3.278,2.373,3.429,5.652,3.429h1.346"/>
<g>
	<path fill="#A3BCC7" d="M177.49,162.404v18h-17v-18H177.49 M180.49,159.404h-23v24h23V159.404L180.49,159.404z"/>
</g>
<g>
	<path fill="#A3BCC7" d="M181.216,164.677l10.205,15.727h-20.409L181.216,164.677 M181.216,159.165l-15.727,24.238h31.455
		L181.216,159.165L181.216,159.165z"/>
</g>
<g>
	<path fill="#A3BCC7" d="M156.607,162.635c4.898,0,8.883,3.985,8.883,8.885c0,4.898-3.984,8.884-8.883,8.884
		c-4.899,0-8.885-3.985-8.885-8.884C147.722,166.62,151.707,162.635,156.607,162.635 M156.607,159.635
		c-6.563,0-11.885,5.321-11.885,11.885s5.321,11.884,11.885,11.884s11.883-5.32,11.883-11.884S163.17,159.635,156.607,159.635
		L156.607,159.635z"/>
</g>
<polygon fill="none" stroke="#A3BCC7" stroke-width="3" stroke-miterlimit="10" points="124.113,306.904 115.113,302.904 
	106.113,306.904 106.113,285.908 124.113,285.908 "/>
<g>
	<path fill="none" stroke="#A3BCC7" stroke-width="3" stroke-miterlimit="10" d="M153.462,263.254c-0.873,0.873-2.287,0.873-3.158,0
		l-9.467-9.467c-0.873-0.873-0.873-2.287,0-3.16l10.064-10.062l12.625,12.626L153.462,263.254z"/>
	
		<line fill="none" stroke="#A3BCC7" stroke-width="3" stroke-miterlimit="10" x1="156.558" y1="234.127" x2="169.964" y2="247.533"/>
	
		<line fill="none" stroke="#A3BCC7" stroke-width="3" stroke-miterlimit="10" x1="162.454" y1="228.233" x2="175.859" y2="241.636"/>
	<path fill="none" stroke="#A3BCC7" stroke-width="3" stroke-miterlimit="10" d="M165.759,251.736"/>
	<path fill="none" stroke="#A3BCC7" stroke-width="3" stroke-miterlimit="10" d="M152.355,238.331"/>
	<polyline fill="none" stroke="#A3BCC7" stroke-width="3" stroke-miterlimit="10" points="151.724,240.077 249.538,144.5 
		274.113,133.329 261.823,156.787 161.232,255.146 	"/>
	
		<line fill="none" stroke="#A3BCC7" stroke-width="3" stroke-miterlimit="10" x1="257.435" y1="139.779" x2="265.445" y2="148.178"/>
	<polyline fill="none" stroke="#A3BCC7" stroke-width="3" stroke-miterlimit="10" points="249.538,144.5 249.538,152.32 
		256.24,152.32 256.24,162.372 	"/>
</g>
</svg>
