<?xml version="1.0" encoding="utf-8"?>
<!-- Generator: Adobe Illustrator 15.0.0, SVG Export Plug-In . SVG Version: 6.00 Build 0)  -->
<!DOCTYPE svg PUBLIC "-//W3C//DTD SVG 1.1//EN" "http://www.w3.org/Graphics/SVG/1.1/DTD/svg11.dtd">
<svg version="1.1" id="Layer_1" xmlns="http://www.w3.org/2000/svg" xmlns:xlink="http://www.w3.org/1999/xlink" x="0px" y="0px"
	 width="200px" height="275px" viewBox="0 0 200 300" enable-background="new 0 0 200 300" xml:space="preserve">
<path fill="none" stroke="#A3BCC7" stroke-width="3" stroke-miterlimit="10" d="M83,234.542l-2-14c-4-21,18.5-20.5,18.5-20.5
	s12.551-0.051,17.5-5.001c7.777-7.777-2.826-29.072,5-37c2.107-2.135,10.42-5.684,11-6.499c4.979-7-12-18.688-12-27
	c0-40-18.102-65-54-65c-35.898,0-65,23-65,65c0,18.556,24.785,30.058,18,67.499c-1.332,7.354-12.75,23.001-12.75,23.001
	S30,238.542,83,234.542z"/>
<path fill="none" stroke="#A3BCC7" stroke-width="3" stroke-miterlimit="10" d="M63.105,75.723
	c-1.967-1.573-5.506,0.785-5.506,0.785c-4.326-3.146-8.26-0.394-8.26-0.394c0.006,0.003-7.77,0.357-9.076,2.359
	c0,0-5-0.395-6.924,3.934c0,0-6.154,1.967-7.693,9.438c0,0-3.461,0.395-4.229,5.506l-2.045,15.896
	c-3.934-0.787-1.965,5.113-1.965,5.113c-0.326,6.518,1.569,7.866,1.569,7.866c2.359,3.539,10.229-0.396,10.229-0.396
	c3.77,1.886,6.281,0.007,7.141-0.825c3.789,3.842,19.287,7.611,19.287,7.611c1.967,0.383,12.586,5.358,12.586,5.358
	c9.832-1.147,13.371-6.125,13.371-6.125c3.471-1.229,3.904-4.668,3.939-5.982c9.11,1.438,10.221-2.164,10.221-2.164
	c4.326,1.181,5.506-2.753,5.506-2.753c7.08-3.935,5.9-9.438,5.9-9.438c2.355-2.754,0-4.328,0-4.328c3.145-4.719,0-7.473,0-7.473
	c1.572-4.721-4.721-5.507-4.721-5.507c-1.969-7.474-13.374-11.799-13.374-11.799c-4.558-5.315-13.998-6.561-20.15-6.771"/>
<g>
	<path fill="#A3BCC7" d="M90.914,9L70.845,33.85V46H59.914V33.85l-12-15.85L90.914,9 M98.535,4.34l-8.234,1.725l-43,9l-4.637,0.971
		l2.859,3.775l11.391,15.048V46v3h3h10.931h3v-3V34.91l19.403-24.025L98.535,4.34L98.535,4.34z"/>
</g>
<g>
	<path fill="#A3BCC7" d="M96.342,3L70.914,34v12h-11V34l-2-3L34.916,3h30.713H96.342 M102.684,0h-6.342H65.629H34.916h-6.348
		l4.028,4.904l22.903,27.884l1.412,2.12V46v3h3h11h3v-3V35.073L98.659,4.902L102.684,0L102.684,0z"/>
</g>
<path fill="none" stroke="#A3BCC7" stroke-width="3" stroke-miterlimit="10" d="M67.375,103c5.766,5.1,14.236,9.01,39.781,4.188"/>
<path fill="none" stroke="#A3BCC7" stroke-width="3" stroke-miterlimit="10" d="M20.914,103c0,0,26.339-18.458,42.587-4.422"/>
<line fill="none" stroke="#A3BCC7" stroke-width="3" stroke-miterlimit="10" x1="67.914" y1="104" x2="68.891" y2="47.375"/>
<line fill="none" stroke="#A3BCC7" stroke-width="3" stroke-miterlimit="10" x1="61.941" y1="47.375" x2="62.914" y2="97.5"/>
</svg>
